# xmcd CD database file
#
# Track frame offsets:
#	150
#	12428
#	28382
#	46172
#	61340
#	76722
#	93123
#	108438
#	128580
#	146207
#	160644
#	173456
#
# Disc length: 2546 seconds
#
# Revision: 0
# Processed by: cddbd v1.5PL3 Copyright (c) Steve Scherf et al.
# Submitted via: CDex 1.51
#
DISCID=8b09f00c
DTITLE=Henri Salvador - Chambre avec vue
DYEAR=2000
DGENRE=Blues
TTITLE0=Jardin D'hiver
TTITLE1=Chambre avec vue
TTITLE2=J'ai vu
TTITLE3=Il fait dimanche
TTITLE4=La muraille de Chine
TTITLE5=Jazz mediterranee
TTITLE6=Un tour de manege
TTITLE7=Vagabond
TTITLE8=Je sais que tu sais
TTITLE9=Mademoiselle
TTITLE10=Le fou de la Reine
TTITLE11=Aime-moi
EXTD=YEAR: 2000
EXTT0=
EXTT1=
EXTT2=
EXTT3=
EXTT4=
EXTT5=
EXTT6=
EXTT7=
EXTT8=
EXTT9=
EXTT10=
EXTT11=
PLAYORDER=
